<?xml version="1.0" encoding="UTF-8"?>
<svg xmlns="http://www.w3.org/2000/svg" xmlns:xlink="http://www.w3.org/1999/xlink" width="100pt" height="100pt" viewBox="0 0 100 100" version="1.1">
<g id="surface686091">
<path style=" stroke:none;fill-rule:nonzero;fill:rgb(100%,100%,100%);fill-opacity:1;" d="M 49.625 4 C 49.40625 4.046875 49.195312 4.132812 49 4.25 L 33 13.125 C 32.9375 13.164062 32.875 13.203125 32.8125 13.25 C 32.789062 13.273438 32.773438 13.289062 32.75 13.3125 C 32.726562 13.335938 32.710938 13.351562 32.6875 13.375 C 32.640625 13.414062 32.601562 13.453125 32.5625 13.5 C 32.46875 13.59375 32.382812 13.703125 32.3125 13.8125 C 32.289062 13.851562 32.265625 13.898438 32.25 13.9375 C 32.226562 13.976562 32.203125 14.023438 32.1875 14.0625 C 32.164062 14.085938 32.148438 14.101562 32.125 14.125 C 32.125 14.148438 32.125 14.164062 32.125 14.1875 C 32.101562 14.226562 32.078125 14.273438 32.0625 14.3125 C 32.0625 14.335938 32.0625 14.351562 32.0625 14.375 C 32.0625 14.414062 32.0625 14.460938 32.0625 14.5 C 32.039062 14.578125 32.015625 14.664062 32 14.75 C 31.984375 14.875 31.984375 15 32 15.125 L 32 21.6875 L 13 32.25 C 12.375 32.609375 11.992188 33.28125 12 34 L 12 51.25 L 5.25 55 L 5 55.125 C 4.9375 55.164062 4.875 55.203125 4.8125 55.25 C 4.789062 55.273438 4.773438 55.289062 4.75 55.3125 C 4.726562 55.335938 4.710938 55.351562 4.6875 55.375 C 4.640625 55.414062 4.601562 55.453125 4.5625 55.5 C 4.515625 55.539062 4.476562 55.578125 4.4375 55.625 C 4.390625 55.6875 4.351562 55.75 4.3125 55.8125 C 4.289062 55.851562 4.265625 55.898438 4.25 55.9375 C 4.226562 55.976562 4.203125 56.023438 4.1875 56.0625 C 4.164062 56.085938 4.148438 56.101562 4.125 56.125 C 4.125 56.148438 4.125 56.164062 4.125 56.1875 C 4.101562 56.226562 4.078125 56.273438 4.0625 56.3125 C 4.0625 56.335938 4.0625 56.351562 4.0625 56.375 C 4.0625 56.414062 4.0625 56.460938 4.0625 56.5 C 4.039062 56.578125 4.015625 56.664062 4 56.75 C 3.984375 56.875 3.984375 57 4 57.125 L 4 74.6875 C 3.992188 75.40625 4.375 76.078125 5 76.4375 L 20.875 85.25 L 21 85.3125 C 21.023438 85.335938 21.039062 85.351562 21.0625 85.375 C 21.101562 85.375 21.148438 85.375 21.1875 85.375 C 21.210938 85.398438 21.226562 85.414062 21.25 85.4375 C 21.289062 85.460938 21.335938 85.484375 21.375 85.5 C 21.398438 85.5 21.414062 85.5 21.4375 85.5 C 21.476562 85.5 21.523438 85.5 21.5625 85.5 C 21.585938 85.523438 21.601562 85.539062 21.625 85.5625 C 21.664062 85.5625 21.710938 85.5625 21.75 85.5625 C 21.773438 85.5625 21.789062 85.5625 21.8125 85.5625 C 21.851562 85.5625 21.898438 85.5625 21.9375 85.5625 C 21.960938 85.5625 21.976562 85.5625 22 85.5625 C 22.039062 85.5625 22.085938 85.5625 22.125 85.5625 C 22.164062 85.5625 22.210938 85.5625 22.25 85.5625 C 22.421875 85.539062 22.585938 85.5 22.75 85.4375 C 22.773438 85.4375 22.789062 85.4375 22.8125 85.4375 C 22.835938 85.414062 22.851562 85.398438 22.875 85.375 C 22.914062 85.359375 22.960938 85.335938 23 85.3125 L 23.1875 85.1875 C 23.226562 85.171875 23.273438 85.148438 23.3125 85.125 L 26.625 83.3125 L 49 95.75 C 49.617188 96.109375 50.382812 96.109375 51 95.75 L 73.375 83.3125 L 76.875 85.25 C 76.9375 85.296875 77 85.335938 77.0625 85.375 C 77.101562 85.375 77.148438 85.375 77.1875 85.375 C 77.210938 85.398438 77.226562 85.414062 77.25 85.4375 C 77.289062 85.460938 77.335938 85.484375 77.375 85.5 C 77.398438 85.5 77.414062 85.5 77.4375 85.5 C 77.476562 85.5 77.523438 85.5 77.5625 85.5 C 77.585938 85.523438 77.601562 85.539062 77.625 85.5625 C 77.664062 85.5625 77.710938 85.5625 77.75 85.5625 C 77.773438 85.5625 77.789062 85.5625 77.8125 85.5625 C 77.851562 85.5625 77.898438 85.5625 77.9375 85.5625 C 77.960938 85.5625 77.976562 85.5625 78 85.5625 C 78.039062 85.5625 78.085938 85.5625 78.125 85.5625 C 78.164062 85.5625 78.210938 85.5625 78.25 85.5625 C 78.421875 85.539062 78.585938 85.5 78.75 85.4375 C 78.773438 85.4375 78.789062 85.4375 78.8125 85.4375 C 78.835938 85.414062 78.851562 85.398438 78.875 85.375 C 78.914062 85.359375 78.960938 85.335938 79 85.3125 L 79.1875 85.1875 C 79.226562 85.171875 79.273438 85.148438 79.3125 85.125 L 95 76.4375 C 95.625 76.078125 96.007812 75.40625 96 74.6875 L 96 57.9375 C 96.523438 57.304688 96.601562 56.414062 96.195312 55.695312 C 95.796875 54.976562 95 54.578125 94.1875 54.6875 L 88 51.25 L 88 34 C 88.007812 33.28125 87.625 32.609375 87 32.25 L 68 21.6875 L 68 15.9375 C 68.523438 15.304688 68.601562 14.414062 68.195312 13.695312 C 67.796875 12.976562 67 12.578125 66.1875 12.6875 L 51 4.25 C 50.640625 4.046875 50.226562 3.960938 49.8125 4 C 49.75 4 49.6875 4 49.625 4 Z M 50 8.3125 L 61.875 14.875 L 50 21.3125 L 38.125 14.875 Z M 36 18.25 L 48 24.75 L 48 38.125 L 36 31.5 L 36 23.4375 C 36.117188 23.054688 36.117188 22.632812 36 22.25 Z M 64 18.25 L 64 22.25 C 63.890625 22.617188 63.890625 23.007812 64 23.375 L 64 31.5 L 52 38.125 L 52 24.75 Z M 32 26.3125 L 32 32.6875 C 31.992188 33.40625 32.375 34.078125 33 34.4375 L 49 43.3125 C 49.023438 43.335938 49.039062 43.351562 49.0625 43.375 C 49.101562 43.375 49.148438 43.375 49.1875 43.375 C 49.210938 43.398438 49.226562 43.414062 49.25 43.4375 C 49.289062 43.460938 49.335938 43.484375 49.375 43.5 C 49.398438 43.5 49.414062 43.5 49.4375 43.5 C 49.476562 43.5 49.523438 43.5 49.5625 43.5 C 49.585938 43.523438 49.601562 43.539062 49.625 43.5625 C 49.664062 43.5625 49.710938 43.5625 49.75 43.5625 C 49.773438 43.5625 49.789062 43.5625 49.8125 43.5625 C 49.851562 43.5625 49.898438 43.5625 49.9375 43.5625 C 49.960938 43.5625 49.976562 43.5625 50 43.5625 C 50.039062 43.5625 50.085938 43.5625 50.125 43.5625 C 50.164062 43.5625 50.210938 43.5625 50.25 43.5625 C 50.421875 43.539062 50.585938 43.5 50.75 43.4375 C 50.773438 43.4375 50.789062 43.4375 50.8125 43.4375 C 50.835938 43.414062 50.851562 43.398438 50.875 43.375 C 50.914062 43.359375 50.960938 43.335938 51 43.3125 L 51.1875 43.1875 C 51.226562 43.171875 51.273438 43.148438 51.3125 43.125 L 67 34.4375 C 67.625 34.078125 68.007812 33.40625 68 32.6875 L 68 26.3125 L 84 35.1875 L 84 49 L 79 46.25 C 78.640625 46.046875 78.226562 45.960938 77.8125 46 C 77.75 46 77.6875 46 77.625 46 C 77.40625 46.046875 77.195312 46.132812 77 46.25 L 61 55.125 C 60.960938 55.140625 60.914062 55.164062 60.875 55.1875 C 60.828125 55.226562 60.789062 55.265625 60.75 55.3125 C 60.726562 55.335938 60.710938 55.351562 60.6875 55.375 C 60.640625 55.414062 60.601562 55.453125 60.5625 55.5 C 60.40625 55.664062 60.28125 55.851562 60.1875 56.0625 C 60.164062 56.085938 60.148438 56.101562 60.125 56.125 C 60.125 56.148438 60.125 56.164062 60.125 56.1875 C 60.101562 56.226562 60.078125 56.273438 60.0625 56.3125 C 60.023438 56.453125 60.007812 56.601562 60 56.75 C 60 56.789062 60 56.835938 60 56.875 L 60 74.6875 C 59.992188 75.40625 60.375 76.078125 61 76.4375 L 69.25 81 L 50 91.6875 L 30.75 81 L 39 76.4375 C 39.625 76.078125 40.007812 75.40625 40 74.6875 L 40 57.9375 C 40.523438 57.304688 40.601562 56.414062 40.195312 55.695312 C 39.796875 54.976562 39 54.578125 38.1875 54.6875 L 23 46.25 C 22.640625 46.046875 22.226562 45.960938 21.8125 46 C 21.75 46 21.6875 46 21.625 46 C 21.40625 46.046875 21.195312 46.132812 21 46.25 L 16 49 L 16 35.1875 Z M 22 50.3125 L 33.875 56.875 L 22 63.3125 L 10.125 56.875 L 14.625 54.375 L 15 54.1875 C 15.039062 54.171875 15.085938 54.148438 15.125 54.125 L 15.1875 54.0625 C 15.226562 54.046875 15.273438 54.023438 15.3125 54 Z M 78 50.3125 L 84.875 54.125 C 84.992188 54.203125 85.117188 54.265625 85.25 54.3125 L 89.875 56.875 L 78 63.3125 L 66.125 56.875 Z M 8 60.25 L 20 66.75 L 20 80.125 L 8 73.5 Z M 36 60.25 L 36 73.5 L 25.875 79.125 L 25.8125 79.125 C 25.773438 79.140625 25.726562 79.164062 25.6875 79.1875 C 25.554688 79.234375 25.429688 79.296875 25.3125 79.375 C 25.265625 79.414062 25.226562 79.453125 25.1875 79.5 L 24 80.125 L 24 66.75 Z M 64 60.25 L 76 66.75 L 76 80.125 L 74.625 79.375 C 74.601562 79.351562 74.585938 79.335938 74.5625 79.3125 L 74.4375 79.25 C 74.375 79.226562 74.3125 79.203125 74.25 79.1875 L 64 73.5 Z M 92 60.25 L 92 73.5 L 80 80.125 L 80 66.75 Z M 92 60.25 "/>
</g>
</svg>
